<?xml version="1.0" encoding="UTF-8" standalone="no"?>
<svg
   xmlns:dc="http://purl.org/dc/elements/1.1/"
   xmlns:cc="http://creativecommons.org/ns#"
   xmlns:rdf="http://www.w3.org/1999/02/22-rdf-syntax-ns#"
   xmlns:svg="http://www.w3.org/2000/svg"
   xmlns="http://www.w3.org/2000/svg"
   xmlns:sodipodi="http://sodipodi.sourceforge.net/DTD/sodipodi-0.dtd"
   xmlns:inkscape="http://www.inkscape.org/namespaces/inkscape"
   viewBox="0 0 6218.75 6218.75"
   height="700"
   width="700"
   xml:space="preserve"
   version="1.1"
   id="svg2"
   sodipodi:docname="file.svg"
   inkscape:version="0.92.0 r15299"><sodipodi:namedview
     pagecolor="#ffffff"
     bordercolor="#666666"
     borderopacity="1"
     objecttolerance="10"
     gridtolerance="10"
     guidetolerance="10"
     inkscape:pageopacity="0"
     inkscape:pageshadow="2"
     inkscape:window-width="1366"
     inkscape:window-height="705"
     id="namedview87"
     showgrid="false"
     inkscape:zoom="0.17042926"
     inkscape:cx="3110.0097"
     inkscape:cy="3375.7761"
     inkscape:window-x="-8"
     inkscape:window-y="-8"
     inkscape:window-maximized="1"
     inkscape:current-layer="svg2" /><metadata
     id="metadata8"><rdf:RDF><cc:Work
         rdf:about=""><dc:format>image/svg+xml</dc:format><dc:type
           rdf:resource="http://purl.org/dc/dcmitype/StillImage" /><dc:title></dc:title></cc:Work></rdf:RDF></metadata><defs
     id="defs6" /><g
     transform="matrix(1.25,0,0,-1.25,0,6218.75)"
     id="g10"
     inkscape:label="g10"
     style="display:inline"><g
       transform="scale(0.339196)"
       id="g12"
       inkscape:label="g12"
       style="display:inline"
       sodipodi:insensitive="true"><path
         id="path138"
         style="display:inline;fill:transparent;fill-opacity:1;fill-rule:nonzero;stroke:none"
         d="m 11043.8,7961.84 c 0,-87.15 -2.6,-174.33 -9,-259.82 -0.3,-7.17 -1,-14.07 -1.5,-21 -100.5,-1338.45 -911.2,-2479.68 -2056.8,-3045.67 -118.63,-58.76 -241.19,-111.53 -367.02,-157.34 -29.59,-10.76 -59.46,-21.29 -89.56,-31.52 -83.55,-28.21 -168.34,-53.51 -254.54,-75.71 -172.44,-44.69 -349.83,-77.15 -531.32,-96.46 -131.13,-14.09 -264.12,-21.26 -399.06,-21.26 -2048.43,0 -3708.77,1660.34 -3708.77,3708.78 0,2048.16 1660.34,3708.76 3708.77,3708.76 1806.8,0 3311.5,-1291.9 3641.5,-3001.89 18.8,-97.67 33.9,-196.78 44.6,-297.08 15.1,-134.47 22.7,-271.29 22.7,-409.79"
         inkscape:connector-curvature="0"
         sodipodi:insensitive="true" /><path
         id="path140"
         style="display:inline;fill:transparent;fill-opacity:1;fill-rule:nonzero;stroke:none"
         d="M 7734.06,4274.32 5473.8,6103.77 v 1257.5 l 760.09,787.3 634.04,-355.31 1233.65,1620.72 1094.38,405.96 1825.14,-1448.31 c 15.1,-134.47 22.7,-271.29 22.7,-409.79 0,-87.15 -2.6,-174.33 -9,-259.82 -0.3,-7.17 -1,-14.07 -1.5,-21 -100.5,-1338.45 -911.2,-2479.68 -2056.8,-3045.67 -118.63,-58.76 -241.19,-111.53 -367.02,-157.34 -29.59,-10.76 -59.46,-21.29 -89.56,-31.52 -83.55,-28.21 -168.34,-53.51 -254.54,-75.71 -172.44,-44.69 -349.83,-77.15 -531.32,-96.46 v 0"
         inkscape:connector-curvature="0"
         sodipodi:insensitive="true" /><path
         id="path142"
         style="display:inline;fill:#967e72;fill-opacity:1;fill-rule:nonzero;stroke:none"
         d="m 5473.74,6103.68 h 320.789 v 916.109 H 5473.74 Z"
         inkscape:connector-curvature="0"
         sodipodi:insensitive="true" /><path
         id="path144"
         style="display:inline;fill:#f68712;fill-opacity:1;fill-rule:nonzero;stroke:none"
         d="m 6090.61,6103.68 h 320.762 v 1400.9 H 6090.61 Z"
         inkscape:connector-curvature="0"
         sodipodi:insensitive="true" /><path
         id="path146"
         style="display:inline;fill:#fff200;fill-opacity:1;fill-rule:nonzero;stroke:none"
         d="m 6707.48,6103.68 h 320.762 V 7262.86 H 6707.48 Z"
         inkscape:connector-curvature="0"
         sodipodi:insensitive="true" /><path
         id="path148"
         style="display:inline;fill:#3871c1;fill-opacity:1;fill-rule:nonzero;stroke:none"
         d="m 7324.36,6103.68 h 320.789 V 7957.45 H 7324.36 Z"
         inkscape:connector-curvature="0"
         sodipodi:insensitive="true" /><path
         id="path150"
         style="display:inline;fill:#ed1c24;fill-opacity:1;fill-rule:nonzero;stroke:none"
         d="m 7941.23,6103.68 h 320.82 V 8757.4 h -320.82 z"
         inkscape:connector-curvature="0"
         sodipodi:insensitive="true" /><path
         id="path152"
         style="display:inline;fill:#00adef;fill-opacity:1;fill-rule:nonzero;stroke:none"
         d="m 8558.1,6103.68 h 320.785 V 9079.75 H 8558.1 Z"
         inkscape:connector-curvature="0"
         sodipodi:insensitive="true" /><path
         id="path154"
         style="display:inline;fill:#ffffff;fill-opacity:1;fill-rule:nonzero;stroke:none"
         d="m 5551.04,7286.65 702.61,727.6 647.26,-362.68 565.4,822.95 699.83,848.86 619.06,229.6 -74.77,201.51 -673.33,-249.74 -742.61,-900.78 -459.64,-669.02 -620.71,347.79 -817.7,-846.79 154.6,-149.3"
         inkscape:connector-curvature="0"
         sodipodi:insensitive="true" /><path
         id="path156"
         style="display:inline;fill:#ffffff;fill-opacity:1;fill-rule:nonzero;stroke:none"
         d="m 8772.2,9308.46 423.88,511.57 -654.93,111.38 231.05,-622.95"
         inkscape:connector-curvature="0"
         sodipodi:insensitive="true" /></g></g></svg>
