<svg xmlns:dc="http://purl.org/dc/elements/1.1/" xmlns:cc="http://creativecommons.org/ns#" xmlns:rdf="http://www.w3.org/1999/02/22-rdf-syntax-ns#" xmlns:svg="http://www.w3.org/2000/svg" xmlns="http://www.w3.org/2000/svg" viewBox="1 0 380 170" height="170" width="380" xml:space="preserve" version="1.1" id="svg2">
  <g xmlns="http://www.w3.org/2000/svg" transform="matrix(1.25,0,0,-1.25,-87,714)" id="g10">
    <g id="g890">
      <g clip-path="url(#clipPath894)" id="g892">
        <g transform="translate(375.1261,439.7706)" id="g910">
          <path id="path912" style="fill:#89c83c;fill-opacity:1;fill-rule:nonzero;stroke:none" d="m 0,0 -69.208,16.711 -0.275,0.197 -69.235,49.582 -50.749,55.66 -0.468,0.368 -75.075,-6.408 -35.513,-17.163 -1.42,3.829 37.356,18.053 76.254,5.48 50.665,-55.661 0.443,-0.319 L -67.821,20.625 0.754,4.069 0,0 Z"/></g>
        <g transform="translate(114.1242,557.9602)" id="g914">
          <path id="path916" style="fill:#89c83c;fill-opacity:1;fill-rule:nonzero;stroke:none" d="m 0,0 c 0,-2.526 -1.795,-4.575 -4.008,-4.575 -2.213,0 -4.008,2.049 -4.008,4.575 0,2.526 1.795,4.575 4.008,4.575 C -1.795,4.575 0,2.526 0,0"/></g>
        <g transform="translate(189.6667,564)" id="g918">
          <path id="path920" style="fill:#89c83c;fill-opacity:1;fill-rule:nonzero;stroke:none" d="m 0,0 c 0,-2.526 -1.795,-4.575 -4.008,-4.575 -2.213,0 -4.008,2.049 -4.008,4.575 0,2.526 1.795,4.575 4.008,4.575 C -1.795,4.575 0,2.526 0,0"/></g>
        <g transform="translate(240.8841,507.972)" id="g922">
          <path id="path924" style="fill:#89c83c;fill-opacity:1;fill-rule:nonzero;stroke:none" d="m 0,0 c 0,-2.526 -1.795,-4.575 -4.008,-4.575 -2.213,0 -4.008,2.049 -4.008,4.575 0,2.526 1.795,4.575 4.008,4.575 C -1.795,4.575 0,2.526 0,0"/></g>
        <g transform="translate(310.6193,458.4387)" id="g926">
          <path id="path928" style="fill:#89c83c;fill-opacity:1;fill-rule:nonzero;stroke:none" d="m 0,0 c 0,-2.526 -1.795,-4.575 -4.008,-4.575 -2.213,0 -4.008,2.049 -4.008,4.575 0,2.526 1.795,4.575 4.008,4.575 C -1.795,4.575 0,2.526 0,0"/></g>
        <g transform="translate(237.5306,438.8102)" id="g930">
          <path id="path932" style="fill:#e2713b;fill-opacity:1;fill-rule:nonzero;stroke:none" d="m 0,0 -63.909,17.492 -63.441,-16.67 -36.967,16.942 1.359,3.858 35.903,-16.455 63.164,16.597 L -1.195,4.605 68.791,88.835 138.949,38.018 136.996,34.506 69.371,83.491 0,0 Z"/></g>
        <g transform="translate(114.1242,441.8051)" id="g934">
          <path id="path936" style="fill:#e2713b;fill-opacity:1;fill-rule:nonzero;stroke:none" d="m 0,0 c 0,-2.526 -1.795,-4.575 -4.008,-4.575 -2.213,0 -4.008,2.049 -4.008,4.575 0,2.526 1.795,4.575 4.008,4.575 C -1.795,4.575 0,2.526 0,0"/></g>
        <g transform="translate(177.0709,458.4387)" id="g938">
          <path id="path940" style="fill:#e2713b;fill-opacity:1;fill-rule:nonzero;stroke:none" d="m 0,0 c 0,-2.526 -1.795,-4.575 -4.008,-4.575 -2.213,0 -4.008,2.049 -4.008,4.575 0,2.526 1.795,4.575 4.008,4.575 C -1.795,4.575 0,2.526 0,0"/></g>
        <g transform="translate(240.8841,441.3889)" id="g942">
          <path id="path944" style="fill:#e2713b;fill-opacity:1;fill-rule:nonzero;stroke:none" d="m 0,0 c 0,-2.526 -1.795,-4.575 -4.008,-4.575 -2.213,0 -4.008,2.049 -4.008,4.575 0,2.526 1.795,4.575 4.008,4.575 C -1.795,4.575 0,2.526 0,0"/></g>
        <g transform="translate(310.6193,524.9732)" id="g946">
          <path id="path948" style="fill:#e2713b;fill-opacity:1;fill-rule:nonzero;stroke:none" d="m 0,0 c 0,-2.526 -1.795,-4.575 -4.008,-4.575 -2.213,0 -4.008,2.049 -4.008,4.575 0,2.526 1.795,4.575 4.008,4.575 C -1.795,4.575 0,2.526 0,0"/></g>
        <g transform="translate(375.1261,456.4042)" id="g950">
          <path id="path952" style="fill:#e62551;fill-opacity:1;fill-rule:nonzero;stroke:none" d="m 0,0 -45.828,92.638 -0.274,0.197 -92.799,-26.213 -47.976,-46.54 -76.991,30.054 -36.283,-30.542 -2.164,3.346 36.755,30.884 78.18,-30.222 48.944,47.1 L -44.44,96.553 0.754,4.069 0,0 Z"/></g>
        <g transform="translate(191.7546,479.0005)" id="g954">
          <path id="path956" style="fill:#e62551;fill-opacity:1;fill-rule:nonzero;stroke:none" d="m 0,0 c 0,-2.526 -1.795,-4.575 -4.008,-4.575 -2.213,0 -4.008,2.049 -4.008,4.575 0,2.526 1.795,4.575 4.008,4.575 C -1.795,4.575 0,2.526 0,0"/></g>
        <g transform="translate(114.3358,507.3)" id="g958">
          <path id="path960" style="fill:#e62551;fill-opacity:1;fill-rule:nonzero;stroke:none" d="m 0,0 c 0,-2.526 -1.795,-4.575 -4.008,-4.575 -2.213,0 -4.008,2.049 -4.008,4.575 0,2.526 1.795,4.575 4.008,4.575 C -1.795,4.575 0,2.526 0,0"/></g>
        <g transform="translate(240.9409,524.9732)" id="g962">
          <path id="path964" style="fill:#e62551;fill-opacity:1;fill-rule:nonzero;stroke:none" d="m 0,0 c 0,-2.526 -1.795,-4.575 -4.008,-4.575 -2.213,0 -4.008,2.049 -4.008,4.575 0,2.526 1.795,4.575 4.008,4.575 C -1.795,4.575 0,2.526 0,0"/></g>
        <g transform="translate(334,551)" id="g966">
          <path id="path968" style="fill:#e62551;fill-opacity:1;fill-rule:nonzero;stroke:none" d="m 0,0 c 0,-2.526 -1.795,-4.575 -4.008,-4.575 -2.213,0 -4.008,2.049 -4.008,4.575 0,2.526 1.795,4.575 4.008,4.575 C -1.795,4.575 0,2.526 0,0"/></g>
      </g>
    </g>
  </g>
</svg>
