<svg xmlns="http://www.w3.org/2000/svg" style="display:none"><symbol id="external-link" viewbox="0 0 283.922 283.922"><g fill="#461e67"><path d="M266.422 0h-97.625c-9.65 0-17.5 7.851-17.5 17.5 0 9.649 7.85 17.5 17.5 17.5h55.377l-92.375 92.374a17.378 17.378 0 0 0-5.127 12.375c0 4.676 1.819 9.069 5.125 12.371a17.374 17.374 0 0 0 12.375 5.13c4.674 0 9.069-1.82 12.376-5.127l92.374-92.375v55.377c0 9.649 7.851 17.5 17.5 17.5 9.649 0 17.5-7.851 17.5-17.5V17.5c0-9.649-7.851-17.5-17.5-17.5z"/><path d="M201.137 253.922H30V82.785h128.711l30-30H15c-8.284 0-15 6.716-15 15v201.137c0 8.284 6.716 15 15 15h201.137c8.284 0 15-6.716 15-15V95.211l-30 30v128.711z"/></g></symbol><symbol id="loading" viewbox="0 0 496 496"><path d="M248 92c-13.6 0-24-10.4-24-24V24c0-13.6 10.4-24 24-24s24 10.4 24 24v44c0 12.8-10.4 24-24 24z" fill="#76ffe5"/><path d="M248 496c-13.6 0-24-10.4-24-24v-44c0-13.6 10.4-24 24-24s24 10.4 24 24v44c0 13.6-10.4 24-24 24z" fill="#0dbfba"/><path d="M157.6 116c-8 0-16-4-20.8-12l-21.6-37.6c-6.4-11.2-2.4-26.4 8.8-32.8s26.4-2.4 32.8 8.8L178.4 80c6.4 11.2 2.4 26.4-8.8 32.8-3.2 1.6-8 3.2-12 3.2z" fill="#bbfff2"/><path d="M360 465.6c-8 0-16-4-20.8-12L317.6 416c-6.4-11.2-2.4-26.4 8.8-32.8 11.2-6.4 26.4-2.4 32.8 8.8l21.6 37.6c6.4 11.2 2.4 26.4-8.8 32.8-4 2.4-8 3.2-12 3.2z" fill="#1bceb8"/><path d="M92 181.6c-4 0-8-.8-12-3.2l-37.6-21.6c-11.2-6.4-15.2-21.6-8.8-32.8s21.6-15.2 32.8-8.8l37.6 21.6c11.2 6.4 15.2 21.6 8.8 32.8-4.8 8-12.8 12-20.8 12z" fill="#e1fff9"/><path d="M442.4 384c-4 0-8-.8-12-3.2L392 359.2c-11.2-6.4-15.2-21.6-8.8-32.8 6.4-11.2 21.6-15.2 32.8-8.8l37.6 21.6c11.2 6.4 15.2 21.6 8.8 32.8-4 8-12 12-20 12z" fill="#26dbc0"/><path d="M68 272H24c-13.6 0-24-10.4-24-24s10.4-24 24-24h44c13.6 0 24 10.4 24 24s-11.2 24-24 24z" fill="#f3fffd"/><path d="M472 272h-44c-13.6 0-24-10.4-24-24s10.4-24 24-24h44c13.6 0 24 10.4 24 24s-10.4 24-24 24z" fill="#2ee5c6"/><path d="M53.6 384c-8 0-16-4-20.8-12-6.4-11.2-2.4-26.4 8.8-32.8l37.6-21.6c11.2-6.4 26.4-2.4 32.8 8.8 6.4 11.2 2.4 26.4-8.8 32.8l-37.6 21.6c-3.2 2.4-7.2 3.2-12 3.2z" fill="#11aeba"/><path d="M404 181.6c-8 0-16-4-20.8-12-6.4-11.2-2.4-26.4 8.8-32.8l37.6-21.6c11.2-6.4 26.4-2.4 32.8 8.8s2.4 26.4-8.8 32.8L416 178.4c-4 2.4-8 3.2-12 3.2z" fill="#3bedcb"/><path d="M136 465.6c-4 0-8-.8-12-3.2-11.2-6.4-15.2-21.6-8.8-32.8l21.6-37.6c6.4-11.2 21.6-15.2 32.8-8.8 11.2 6.4 15.2 21.6 8.8 32.8l-21.6 37.6c-4.8 8-12.8 12-20.8 12z" fill="#0fb8bc"/><path d="M338.4 116c-4 0-8-.8-12-3.2-11.2-6.4-15.2-21.6-8.8-32.8l21.6-37.6c6.4-11.2 21.6-15.2 32.8-8.8 11.2 6.4 15.2 21.6 8.8 32.8L359.2 104c-4.8 7.2-12.8 12-20.8 12z" fill="#57f7d8"/></symbol><symbol id="refresh" viewbox="0 0 496.156 496.156"><path d="M0 248.08C0 111.06 111.069.002 248.074.002c137.013 0 248.082 111.059 248.082 248.078 0 137.005-111.069 248.074-248.082 248.074C111.069 496.154 0 385.085 0 248.08z" fill="#461e67"/><g fill="#fff"><path d="M428.243 172.149c-10.348.023-20.694.054-31.042.077-23.272-52.177-68.95-89.871-126.649-98.91-64.287-10.071-125.816 19.788-162.504 72.312-16.296 23.326 22.003 45.165 38.16 22.034 50.317-72.037 157.757-65.527 201.907 4.686l-28.678.068c-2.674.008-4.574 1.197-5.749 2.877-1.92 2.058-2.65 5.072-.639 8.186 18.204 28.25 36.408 56.499 54.616 84.745 3.061 4.747 9.663 4.708 12.696-.046l54.188-85.013c2.989-4.685-.947-11.03-6.306-11.016zM350.353 327.224c-49.927 71.49-156.108 65.63-200.886-3.049l27.484-.068c2.666-.008 4.563-1.19 5.741-2.865 1.924-2.059 2.658-5.072.646-8.197-18.2-28.246-36.405-56.499-54.609-84.741-3.056-4.751-9.662-4.712-12.695.046l-54.196 85.009c-2.987 4.689.948 11.032 6.308 11.017l32.006-.08c23.498 51.319 68.777 88.332 125.865 97.275 64.287 10.072 125.816-19.784 162.496-72.312 16.293-23.331-22.005-45.169-38.16-22.035z"/></g></symbol><symbol id="tap" viewbox="0 0 42.585 42.585"><g fill="#461e67"><path d="M14.934 32.494a.5.5 0 0 1-.5-.5V15.632c0-1.93 1.481-3.5 3.303-3.5s3.303 1.57 3.303 3.5v10.637a.5.5 0 0 1-1 0V15.632c0-1.378-1.033-2.5-2.303-2.5s-2.303 1.122-2.303 2.5v16.361a.5.5 0 0 1-.5.501z"/><path d="M17.099 42.585a.502.502 0 0 1-.354-.146l-7.413-7.412c-.824-.824-1.376-1.835-1.555-2.846-.189-1.076.062-2.025.708-2.67 1.287-1.288 3.415-1.255 4.745.074l2.056 2.056a.5.5 0 0 1-.707.707l-2.056-2.056c-.94-.939-2.435-.972-3.331-.074-.409.409-.562 1.044-.43 1.79.143.811.596 1.632 1.277 2.313l7.413 7.412a.5.5 0 0 1-.353.852zM26.146 27.341a.5.5 0 0 1-.5-.5V24.32c0-1.115-1.033-2.021-2.303-2.021s-2.303.907-2.303 2.021v2.521a.5.5 0 0 1-1 0V24.32c0-1.666 1.482-3.021 3.303-3.021s3.303 1.355 3.303 3.021v2.521a.5.5 0 0 1-.5.5z"/><path d="M31.75 27.341a.5.5 0 0 1-.5-.5v-2.104c0-.87-1.054-1.604-2.302-1.604s-2.302.735-2.302 1.604v2.104a.5.5 0 0 1-1 0v-2.104c0-1.436 1.481-2.604 3.302-2.604s3.302 1.168 3.302 2.604v2.104c0 .277-.223.5-.5.5z"/><path d="M37.356 33.759a.5.5 0 0 1-.5-.5v-6.877c0-1.378-1.033-2.5-2.303-2.5-1.357 0-2.303.648-2.303 1.229v1.729a.5.5 0 0 1-1 0v-1.729c0-1.25 1.451-2.229 3.303-2.229 1.821 0 3.303 1.57 3.303 3.5v6.877a.5.5 0 0 1-.5.5z"/><path d="M33.356 42.582H17.138c-.276 0-.518-.224-.518-.5s.206-.5.482-.5h16.254c1.93 0 3.5-1.57 3.5-3.5v-5.396a.5.5 0 0 1 1 0v5.396c0 2.481-2.019 4.5-4.5 4.5zM17.737 7.197a.5.5 0 0 1-.5-.5V.5a.5.5 0 0 1 1 0v6.197a.5.5 0 0 1-.5.5zM21.857 8.916a.5.5 0 0 1-.354-.853l4.381-4.382a.5.5 0 0 1 .707.707L22.21 8.769a.495.495 0 0 1-.353.147zM30.244 12.408h-6.197a.5.5 0 0 1 0-1h6.197a.5.5 0 0 1 0 1z"/><g><path d="M13.617 8.916a.502.502 0 0 1-.354-.146L8.881 4.387a.5.5 0 0 1 .707-.707l4.382 4.382a.5.5 0 0 1-.353.854zM11.426 12.408H5.229a.5.5 0 0 1 0-1h6.196a.5.5 0 0 1 .001 1z"/></g></g></symbol></svg>